<?xml version="1.0" encoding="UTF-8"?>
<svg width="50px" height="50px" viewBox="0 0 50 50" version="1.1" xmlns="http://www.w3.org/2000/svg" xmlns:xlink="http://www.w3.org/1999/xlink">
    <title>close_press</title>
    <g id="页面-1" stroke="none" stroke-width="1" fill="none" fill-rule="evenodd">
        <g id="第三方标题栏40-24" transform="translate(-1265, -478)">
            <g id="dark-50" transform="translate(1231, 31)">
                <g id="close_press" transform="translate(34, 447)">
                    <rect id="矩形" fill-opacity="0.289" fill="#000000" fill-rule="nonzero" opacity="0" x="7" y="0" width="27" height="23"></rect>
                    <polygon id="路径" fill-opacity="0.1" fill="#000000" fill-rule="nonzero" points="0 0 50 0 50 50 0 50"></polygon>
                    <polygon id="Combined-Shape" fill="#0081FF" points="20.0606602 29.9601551 19.7071068 30.3137085 19 29.6066017 19.3535534 29.2530483 23.9497475 24.6568542 19.3535534 20.0606602 19 19.7071068 19.7071068 19 20.0606602 19.3535534 24.6568542 23.9497475 29.2530483 19.3535534 29.6066017 19 30.3137085 19.7071068 29.9601551 20.0606602 25.363961 24.6568542 29.9601551 29.2530483 30.3137085 29.6066017 29.6066017 30.3137085 29.2530483 29.9601551 24.6568542 25.363961"></polygon>
                </g>
            </g>
        </g>
    </g>
</svg>