<?xml version="1.0" encoding="UTF-8"?>
<svg width="50px" height="50px" viewBox="0 0 50 50" version="1.1" xmlns="http://www.w3.org/2000/svg" xmlns:xlink="http://www.w3.org/1999/xlink">
    <title>close_hover</title>
    <g id="分屏/水印/三方标题栏" stroke="none" stroke-width="1" fill="none" fill-rule="evenodd">
        <g id="dark-50" transform="translate(-212, -446)" fill="#000000">
            <g id="close_normal" transform="translate(212, 446)">
                <rect id="矩形" fill-opacity="0.05" x="0" y="0" width="50" height="50"></rect>
                <path d="M19.6610913,19.6610913 C19.8758796,19.4463029 20.2241204,19.4463029 20.4389087,19.6610913 L24.999,24.223 L29.5605862,19.6610913 C29.7515092,19.4701683 30.047876,19.4489546 30.262231,19.5974503 L30.3384037,19.6610913 C30.553192,19.8758796 30.553192,20.2241204 30.3384037,20.4389087 L25.777,24.999 L30.3384037,29.5605862 C30.5293267,29.7515092 30.5505403,30.047876 30.4020447,30.262231 L30.3384037,30.3384037 C30.1236153,30.553192 29.7753746,30.553192 29.5605862,30.3384037 L24.999,25.777 L20.4389087,30.3384037 C20.2479857,30.5293267 19.9516189,30.5505403 19.7372639,30.4020447 L19.6610913,30.3384037 C19.4463029,30.1236153 19.4463029,29.7753746 19.6610913,29.5605862 L24.223,24.999 L19.6610913,20.4389087 C19.4701683,20.2479857 19.4489546,19.9516189 19.5974503,19.7372639 L19.6610913,19.6610913 Z" id="形状结合" fill-opacity="0.7" fill-rule="nonzero"></path>
            </g>
        </g>
    </g>
</svg>