<?xml version="1.0" encoding="UTF-8"?>
<svg width="50px" height="50px" viewBox="0 0 50 50" version="1.1" xmlns="http://www.w3.org/2000/svg" xmlns:xlink="http://www.w3.org/1999/xlink">
    <title>menu_disable</title>
    <g id="页面-1" stroke="none" stroke-width="1" fill="none" fill-rule="evenodd" opacity="0.4">
        <g id="第三方标题栏40-24" transform="translate(-1527, -258)">
            <g id="dark-50" transform="translate(1231, 31)">
                <g id="DTK-/-Toolbar-/-TitleButton-/-Menu" transform="translate(296, 227)">
                    <rect id="bg" fill-opacity="0.1" fill="#000000" opacity="0" x="0" y="0" width="50" height="50"></rect>
                    <g id="DTK/Toolbar/TitleButton/Menu" transform="translate(16, 16)" fill="#536076">
                        <path d="M9,0 C13.9705627,0 18,4.02943725 18,9 C18,13.9705627 13.9705627,18 9,18 C4.02943725,18 0,13.9705627 0,9 C0,4.02943725 4.02943725,0 9,0 Z M9,1 C4.581722,1 1,4.581722 1,9 C1,13.418278 4.581722,17 9,17 C13.418278,17 17,13.418278 17,9 C17,4.581722 13.418278,1 9,1 Z M5,7.5 C5.82842712,7.5 6.5,8.17157288 6.5,9 C6.5,9.82842712 5.82842712,10.5 5,10.5 C4.17157288,10.5 3.5,9.82842712 3.5,9 C3.5,8.17157288 4.17157288,7.5 5,7.5 Z M9,7.5 C9.82842712,7.5 10.5,8.17157288 10.5,9 C10.5,9.82842712 9.82842712,10.5 9,10.5 C8.17157288,10.5 7.5,9.82842712 7.5,9 C7.5,8.17157288 8.17157288,7.5 9,7.5 Z M13,7.5 C13.8284271,7.5 14.5,8.17157288 14.5,9 C14.5,9.82842712 13.8284271,10.5 13,10.5 C12.1715729,10.5 11.5,9.82842712 11.5,9 C11.5,8.17157288 12.1715729,7.5 13,7.5 Z" id="形状结合"></path>
                    </g>
                </g>
            </g>
        </g>
    </g>
</svg>