<?xml version="1.0" encoding="UTF-8"?>
<svg width="50px" height="50px" viewBox="0 0 50 50" version="1.1" xmlns="http://www.w3.org/2000/svg" xmlns:xlink="http://www.w3.org/1999/xlink">
    <title>unmaximize_hover</title>
    <g id="页面-1" stroke="none" stroke-width="1" fill="none" fill-rule="evenodd">
        <g id="第三方标题栏40-24" transform="translate(-1441, -53)">
            <g id="dark-50" transform="translate(1231, 31)">
                <g id="unmaximize_hover" transform="translate(210, 22)">
                    <rect id="矩形" fill-opacity="0.05" fill="#000000" x="0" y="0" width="50" height="50"></rect>
                    <path d="M29,21 L21,21 L21,20 L30,20 L30,29 L29,29 L29,21 Z M20,28 L20,24 L20,22 L22,22 L26,22 L28,22 L28,24 L28,28 L28,30 L26,30 L22,30 L20,30 L20,28 Z M21,29 L27,29 L27,23 L21,23 L21,29 Z" id="形状" fill="#001A2E"></path>
                </g>
            </g>
        </g>
    </g>
</svg>