<?xml version="1.0" encoding="UTF-8"?>
<svg width="50px" height="50px" viewBox="0 0 50 50" version="1.1" xmlns="http://www.w3.org/2000/svg" xmlns:xlink="http://www.w3.org/1999/xlink">
    <title>unmaximize_normal</title>
    <g id="分屏/水印/三方标题栏" stroke="none" stroke-width="1" fill="none" fill-rule="evenodd">
        <g id="1070新改工具栏图标" transform="translate(-271, -89)" fill="#000000" fill-rule="nonzero">
            <g id="dark-50" transform="translate(145, 68)">
                <g id="unmaximize_normal" transform="translate(126, 21)">
                    <rect id="矩形" fill-opacity="0.1" opacity="0" x="0" y="0" width="50" height="50"></rect>
                    <path d="M29,21 C29.5522847,21 30,21.4477153 30,22 L30,29 C30,29.5522847 29.5522847,30 29,30 L20,30 C19.4477153,30 19,29.5522847 19,29 L19,22 C19,21.4477153 19.4477153,21 20,21 L29,21 Z M31,19 C31.5522847,19 32,19.4477153 32,20 L32,28.75 C32,28.8880712 31.8880712,29 31.75,29 L31.25,29 C31.1119288,29 31,28.8880712 31,28.75 L31,20 L21.25,20 C21.1119288,20 21,19.8880712 21,19.75 L21,19.25 C21,19.1119288 21.1119288,19 21.25,19 L31,19 Z M29,22 L20,22 L20,29 L29,29 L29,22 Z" id="形状结合" fill-opacity="0.7"></path>
                </g>
            </g>
        </g>
    </g>
</svg>