<?xml version="1.0" encoding="UTF-8"?>
<svg width="36px" height="36px" viewBox="0 0 36 36" version="1.1" xmlns="http://www.w3.org/2000/svg" xmlns:xlink="http://www.w3.org/1999/xlink">
    <title>right</title>
    <g id="分屏/水印/三方标题栏" stroke="none" stroke-width="1" fill="none" fill-rule="evenodd" fill-opacity="0.7">
        <g id="通过分屏菜单触发分屏" transform="translate(-1311, -634)" fill="#FFFFFF" fill-rule="nonzero">
            <g id="编组备份-2" transform="translate(1255, 603)">
                <g id="right" transform="translate(74, 49) scale(-1, 1) translate(-74, -49)translate(56, 31)">
                    <g id="右" transform="translate(8, 11)">
                        <path d="M18,0 C19.1045695,-2.02906125e-16 20,0.8954305 20,2 L20,13 C20,14.1045695 19.1045695,15 18,15 L2,15 C0.8954305,15 1.3527075e-16,14.1045695 0,13 L0,2 C-1.3527075e-16,0.8954305 0.8954305,2.02906125e-16 2,0 L18,0 Z M18,1 L2,1 C1.44771525,1 1,1.44771525 1,2 L1,13 C1,13.5522847 1.44771525,14 2,14 L18,14 C18.5522847,14 19,13.5522847 19,13 L19,2 C19,1.44771525 18.5522847,1 18,1 Z M9,2 C9.55228475,2 10,2.44771525 10,3 L10,12 C10,12.5522847 9.55228475,13 9,13 L3,13 C2.44771525,13 2,12.5522847 2,12 L2,3 C2,2.44771525 2.44771525,2 3,2 L9,2 Z" id="Combined-Shape"></path>
                    </g>
                </g>
            </g>
        </g>
    </g>
</svg>