<?xml version="1.0" encoding="UTF-8"?>
<svg width="66px" height="66px" viewBox="0 0 66 66" version="1.1" xmlns="http://www.w3.org/2000/svg" xmlns:xlink="http://www.w3.org/1999/xlink">
    <title>DTK / Button / IconButton / Add-Light</title>
    <defs>
        <rect id="path-1" x="0" y="0" width="64" height="64" rx="16"></rect>
    </defs>
    <g id="固定高度" stroke="none" stroke-width="1" fill="none" fill-rule="evenodd">
        <g id="DTK-/-Button-/-IconButton-/-Add-Light" transform="translate(1.000000, 1.000000)">
            <g id="button_background">
                <use fill-opacity="0.1" fill="#101010" fill-rule="evenodd" xlink:href="#path-1"></use>
                <rect stroke-opacity="0.0992697011" stroke="#000000" stroke-width="1" x="-0.5" y="-0.5" width="65" height="65" rx="16"></rect>
                <rect stroke-opacity="0.102294922" stroke="#FFFFFF" stroke-width="1" stroke-linejoin="square" x="0.5" y="0.5" width="63" height="63" rx="16"></rect>
            </g>
            <g id="编组" transform="translate(16.000000, 16.000000)" fill="#FFFFFF" fill-opacity="0.7" fill-rule="nonzero">
                <g id="ICON-/-Action-/-Add">
                    <path d="M16,4 C17.1045695,4 18,4.8954305 18,6 L17.999,13.999 L26,14 C27.1045695,14 28,14.8954305 28,16 C28,17.1045695 27.1045695,18 26,18 L17.999,17.999 L18,26 C18,27.1045695 17.1045695,28 16,28 C14.8954305,28 14,27.1045695 14,26 L13.999,17.999 L6,18 C4.8954305,18 4,17.1045695 4,16 C4,14.8954305 4.8954305,14 6,14 L13.999,13.999 L14,6 C14,4.8954305 14.8954305,4 16,4 Z" id="形状结合"></path>
                </g>
            </g>
        </g>
    </g>
</svg>