<?xml version="1.0" encoding="UTF-8"?>
<svg width="128px" height="128px" viewBox="0 0 128 128" version="1.1" xmlns="http://www.w3.org/2000/svg" xmlns:xlink="http://www.w3.org/1999/xlink">
    <title>icon-lock</title>
    <g id="icon-lock" stroke="none" stroke-width="1" fill="none" fill-rule="evenodd">
        <g id="ICON-/-Lock" transform="translate(22.000000, 15.000000)" fill="#FD0000" fill-rule="nonzero">
            <g id="9004738_lock_security_padlock_secure_icon">
                <path d="M63.6666667,42 C61.2734328,42 59.3333333,40.0300529 59.3333333,37.6 L59.3333333,26.4 C59.3333333,16.6797884 51.5729357,8.8 42,8.8 C32.4270643,8.8 24.6666667,16.6797884 24.6666667,26.4 L24.6666667,37.6 C24.6666667,40.0300529 22.7265672,42 20.3333333,42 C17.9400994,42 16,40.0300529 16,37.6 L16,26.4 C16,11.8196826 27.6405965,0 42,0 C56.3594035,0 68,11.8196826 68,26.4 L68,37.6 C68,40.0300529 66.0599006,42 63.6666667,42 Z" id="路径"></path>
                <path d="M71,34 C78.1976103,34 84,39.8023897 84,47 L84,85 C84,92.1976103 78.1976103,98 71,98 L13,98 C5.80238966,98 0,92.1976103 0,85 L0,47 C0,39.8023897 5.80238966,34 13,34 L71,34 Z M71,42 L13,42 C10.2206677,42 8,44.2206677 8,47 L8,85 C8,87.7793323 10.2206677,90 13,90 L71,90 C73.7793323,90 76,87.7793323 76,85 L76,47 C76,44.2206677 73.7793323,42 71,42 Z" id="矩形"></path>
                <path d="M42,50 C46.418278,50 50,53.581722 50,58 C50,60.9610634 48.3912772,63.5463894 46.00016,64.9296499 L46,73.2 C46,75.8509668 44.209139,78 42,78 C39.790861,78 38,75.8509668 38,73.2 L37.9988403,64.9290715 C35.6082744,63.5456688 34,60.9606507 34,58 C34,53.581722 37.581722,50 42,50 Z" id="形状结合"></path>
            </g>
        </g>
    </g>
</svg>