<?xml version="1.0" encoding="UTF-8"?>
<svg width="32px" height="32px" viewBox="0 0 32 32" version="1.1" xmlns="http://www.w3.org/2000/svg" xmlns:xlink="http://www.w3.org/1999/xlink">
    <title>编组 3</title>
    <defs>
        <polygon id="path-1" points="9.37565603 17.9970194 9.37565603 13.9970132 16.4166837 14.0145713 13.7880499 11.3860605 16.5869007 8.58567382 24 15.9970683 16.5895141 23.4566416 13.7878199 20.6549475 16.4285526 18.0146072"></polygon>
        <filter x="-34.2%" y="-26.9%" width="168.4%" height="167.2%" filterUnits="objectBoundingBox" id="filter-2">
            <feOffset dx="0" dy="1" in="SourceAlpha" result="shadowOffsetOuter1"></feOffset>
            <feGaussianBlur stdDeviation="1.5" in="shadowOffsetOuter1" result="shadowBlurOuter1"></feGaussianBlur>
            <feColorMatrix values="0 0 0 0 0   0 0 0 0 0   0 0 0 0 0  0 0 0 0.4 0" type="matrix" in="shadowBlurOuter1"></feColorMatrix>
        </filter>
        <linearGradient x1="50%" y1="0%" x2="50%" y2="100%" id="linearGradient-3">
            <stop stop-color="#393939" offset="0%"></stop>
            <stop stop-color="#000000" offset="100%"></stop>
        </linearGradient>
    </defs>
    <g id="1050分屏" stroke="none" stroke-width="1" fill="none" fill-rule="evenodd">
        <g id="编组-3">
            <rect id="left-arrow" fill-opacity="0.4" fill="#000000" opacity="0" x="0" y="0" width="32" height="32"></rect>
            <g id="path4765" fill-rule="nonzero" transform="translate(16.687828, 16.021158) scale(-1, 1) translate(-16.687828, -16.021158) ">
                <use fill="black" fill-opacity="1" filter="url(#filter-2)" xlink:href="#path-1"></use>
                <use fill="#FFFFFF" xlink:href="#path-1"></use>
            </g>
            <polygon id="Path" fill="url(#linearGradient-3)" transform="translate(16.893810, 16.020045) scale(-1, 1) translate(-16.893810, -16.020045) " points="16.99914 10 15.61405 11.38585 19.24898 15.02061 10.78762 14.99951 10.78762 16.99951 19.24898 17.02061 15.61405 20.655 16.99914 22.04009 23 15.99948"></polygon>
        </g>
    </g>
</svg>