<?xml version="1.0" encoding="UTF-8"?>
<svg width="70px" height="70px" viewBox="0 0 70 70" version="1.1" xmlns="http://www.w3.org/2000/svg" xmlns:xlink="http://www.w3.org/1999/xlink">
    <title>形状结合</title>
    <defs>
        <path d="M35.0000018,13.0000018 C43.8365578,13.0000018 51.0000018,20.1634459 51.0000018,29.0000018 C51.0000018,37.8365578 43.8365578,45.0000018 35.0000018,45.0000018 C26.1634459,45.0000018 19.0000018,37.8365578 19.0000018,29.0000018 C19.0000018,20.1634459 26.1634459,13.0000018 35.0000018,13.0000018 Z M30.533134,23.1044265 C30.1337102,22.7938557 29.5561659,22.8220894 29.1891276,23.1891276 C28.8312654,23.5469899 28.7954792,24.1049646 29.081769,24.5028493 L29.081769,24.5028493 L29.1891276,24.6290542 L33.5599091,28.9999091 L29.1891276,33.3709458 L29.081769,33.4971507 C28.7954792,33.8950354 28.8312654,34.4530101 29.1891276,34.8108724 C29.5867524,35.2084971 30.2314294,35.2084971 30.6290542,34.8108724 L30.6290542,34.8108724 L34.9999091,30.4389091 L39.3709458,34.8108724 L39.466866,34.8955735 C39.8662898,35.2061443 40.4438341,35.1779106 40.8108724,34.8108724 C41.1687346,34.4530101 41.2045208,33.8950354 40.918231,33.4971507 L40.918231,33.4971507 L40.8108724,33.3709458 L36.4389091,28.9999091 L40.8108724,24.6290542 L40.918231,24.5028493 C41.2045208,24.1049646 41.1687346,23.5469899 40.8108724,23.1891276 C40.4132476,22.7915029 39.7685706,22.7915029 39.3709458,23.1891276 L39.3709458,23.1891276 L34.9999091,27.5599091 L30.6290542,23.1891276 Z" id="path-1"></path>
        <filter x="-103.1%" y="-84.4%" width="306.2%" height="306.2%" filterUnits="objectBoundingBox" id="filter-2">
            <feOffset dx="0" dy="6" in="SourceAlpha" result="shadowOffsetOuter1"></feOffset>
            <feGaussianBlur stdDeviation="10" in="shadowOffsetOuter1" result="shadowBlurOuter1"></feGaussianBlur>
            <feColorMatrix values="0 0 0 0 0   0 0 0 0 0   0 0 0 0 0  0 0 0 0.2 0" type="matrix" in="shadowBlurOuter1"></feColorMatrix>
        </filter>
    </defs>
    <g id="固定高度" stroke="none" stroke-width="1" fill="none" fill-rule="evenodd">
        <g id="形状结合" fill-rule="nonzero">
            <use fill="black" fill-opacity="1" filter="url(#filter-2)" xlink:href="#path-1"></use>
            <use fill="#FFFFFF" xlink:href="#path-1"></use>
        </g>
    </g>
</svg>