<?xml version="1.0" encoding="UTF-8"?>
<svg width="72px" height="72px" viewBox="0 0 72 72" version="1.1" xmlns="http://www.w3.org/2000/svg" xmlns:xlink="http://www.w3.org/1999/xlink">
    <title>编组 2</title>
    <defs>
        <circle id="path-1" cx="16" cy="16" r="16"></circle>
        <filter x="-103.1%" y="-84.4%" width="306.2%" height="306.2%" filterUnits="objectBoundingBox" id="filter-2">
            <feOffset dx="0" dy="6" in="SourceAlpha" result="shadowOffsetOuter1"></feOffset>
            <feGaussianBlur stdDeviation="10" in="shadowOffsetOuter1" result="shadowBlurOuter1"></feGaussianBlur>
            <feColorMatrix values="0 0 0 0 0   0 0 0 0 0   0 0 0 0 0  0 0 0 0.2 0" type="matrix" in="shadowBlurOuter1"></feColorMatrix>
        </filter>
    </defs>
    <g id="固定高度" stroke="none" stroke-width="1" fill="none" fill-rule="evenodd">
        <g id="编组-2" transform="translate(20.000000, 14.000000)" fill-rule="nonzero">
            <g id="椭圆形">
                <use fill="black" fill-opacity="1" filter="url(#filter-2)" xlink:href="#path-1"></use>
                <use fill="#FFFFFF" xlink:href="#path-1"></use>
            </g>
            <path d="M19.2990898,9.3147483 L22.6859839,12.676897 L22.6859839,12.676897 C23.0662399,13.0078522 23.1068301,13.5851222 22.7766446,13.9662647 C22.4464594,14.3474073 21.8705322,14.3880921 21.4902762,14.0571368 C21.4579662,14.0290159 21.427671,13.99865 21.3996155,13.9662647 L21.0576695,13.6969664 L17.5975012,18.5932995 L18.6803303,19.6786533 L18.6803304,19.6786533 C19.0105156,20.0597959 18.9699255,20.6370659 18.5896697,20.9680211 C18.2467234,21.2665045 17.7369083,21.2665045 17.3939621,20.968021 L11.019111,14.5375036 L11.019111,14.5375036 C10.6889257,14.1563611 10.7295159,13.579091 11.1097717,13.2481359 C11.4527179,12.9496524 11.962533,12.9496524 12.3054793,13.2481358 L13.3801668,14.3334897 L18.2651102,10.8652537 L18.0127215,10.604116 L18.0127214,10.6041159 C17.6324655,10.2731608 17.5918753,9.69589075 17.9220609,9.3147482 C18.2522462,8.93360565 18.8281733,8.89292082 19.2084293,9.22387627 C19.2407393,9.2519972 19.2710345,9.28236307 19.29909,9.31474836 L19.2990898,9.3147483 Z M14.1861824,19.0502906 L12.9160971,17.7935651 C11.890259,19.0339695 10.2700861,20.8374522 9.97698953,21.2128377 L9.97698906,21.2128383 C9.54882981,21.7462166 9.21808002,22.3512405 9,23 L9,23 C9.64667778,22.7838967 10.2502577,22.4551586 10.7830043,22.0288939 C11.1575167,21.735114 12.9568042,20.1111635 14.1861824,19.0666124 L14.1861824,19.0502906 Z" id="形状" fill="#0081FF"></path>
        </g>
    </g>
</svg>