<?xml version="1.0" encoding="UTF-8"?>
<svg width="16px" height="16px" viewBox="0 0 16 16" version="1.1" xmlns="http://www.w3.org/2000/svg" xmlns:xlink="http://www.w3.org/1999/xlink">
    <title>icon-delet</title>
    <defs>
        <filter x="-47.8%" y="-44.5%" width="195.6%" height="189.0%" filterUnits="objectBoundingBox" id="filter-1">
            <feOffset dx="0" dy="1" in="SourceAlpha" result="shadowOffsetOuter1"></feOffset>
            <feGaussianBlur stdDeviation="1" in="shadowOffsetOuter1" result="shadowBlurOuter1"></feGaussianBlur>
            <feColorMatrix values="0 0 0 0 0   0 0 0 0 0   0 0 0 0 0  0 0 0 0.1 0" type="matrix" in="shadowBlurOuter1" result="shadowMatrixOuter1"></feColorMatrix>
            <feMerge>
                <feMergeNode in="shadowMatrixOuter1"></feMergeNode>
                <feMergeNode in="SourceGraphic"></feMergeNode>
            </feMerge>
        </filter>
    </defs>
    <g id="icon-delet" stroke="none" stroke-width="1" fill="none" fill-rule="evenodd">
        <g id="编组" filter="url(#filter-1)" transform="translate(0.700000, 0.700000)">
            <rect id="矩形" fill="#FFFFFF" x="3.3" y="0.3" width="7" height="1" rx="0.5"></rect>
            <path d="M9.8,0 L3.8,0 C3.3581722,0 3,0.3581722 3,0.8 C3,1.2418278 3.3581722,1.6 3.8,1.6 L9.8,1.6 C10.2418278,1.6 10.6,1.2418278 10.6,0.8 C10.6,0.3581722 10.2418278,0 9.8,0 Z M9.8,0.3 C10.0761424,0.3 10.3,0.523857625 10.3,0.8 C10.3,1.07614237 10.0761424,1.3 9.8,1.3 L3.8,1.3 C3.52385763,1.3 3.3,1.07614237 3.3,0.8 C3.3,0.523857625 3.52385763,0.3 3.8,0.3 L9.8,0.3 Z" id="矩形" fill-opacity="0.1" fill="#000000" fill-rule="nonzero"></path>
            <path d="M12.8,2 L0.8,2 C0.3581722,2 0,2.3581722 0,2.8 C0,3.2418278 0.3581722,3.6 0.8,3.6 L12.8,3.6 C13.2418278,3.6 13.6,3.2418278 13.6,2.8 C13.6,2.3581722 13.2418278,2 12.8,2 Z M12.8,2.3 C13.0761424,2.3 13.3,2.52385763 13.3,2.8 C13.3,3.07614237 13.0761424,3.3 12.8,3.3 L0.8,3.3 C0.523857625,3.3 0.3,3.07614237 0.3,2.8 C0.3,2.52385763 0.523857625,2.3 0.8,2.3 L12.8,2.3 Z" id="矩形" fill-opacity="0.1" fill="#000000" fill-rule="nonzero"></path>
            <rect id="矩形" fill="#FFFFFF" x="0.3" y="2.3" width="13" height="1" rx="0.5"></rect>
            <path d="M12.3,4.3 L12.3,11.3 C12.3,12.9568542 10.9568542,14.3 9.3,14.3 L4.3,14.3 C2.64314575,14.3 1.3,12.9568542 1.3,11.3 L1.3,4.3 L12.3,4.3 Z M3.8,6.3 C3.52385763,6.3 3.3,6.52385763 3.3,6.8 L3.3,11.8 C3.3,12.0761424 3.52385763,12.3 3.8,12.3 C4.07614237,12.3 4.3,12.0761424 4.3,11.8 L4.3,6.8 C4.3,6.52385763 4.07614237,6.3 3.8,6.3 Z M6.8,6.3 C6.52385763,6.3 6.3,6.52385763 6.3,6.8 L6.3,11.8 C6.3,12.0761424 6.52385763,12.3 6.8,12.3 C7.07614237,12.3 7.3,12.0761424 7.3,11.8 L7.3,6.8 C7.3,6.52385763 7.07614237,6.3 6.8,6.3 Z M9.8,6.3 C9.52385763,6.3 9.3,6.52385763 9.3,6.8 L9.3,11.8 C9.3,12.0761424 9.52385763,12.3 9.8,12.3 C10.0761424,12.3 10.3,12.0761424 10.3,11.8 L10.3,6.8 C10.3,6.52385763 10.0761424,6.3 9.8,6.3 Z" id="形状结合" fill="#FFFFFF"></path>
            <path d="M12.6,4 L12.6,11.3 C12.6,13.1225397 11.1225397,14.6 9.3,14.6 L4.3,14.6 C2.47746033,14.6 1,13.1225397 1,11.3 L1,4 L12.6,4 Z M12.3,4.3 L1.3,4.3 L1.3,11.3 C1.3,12.9568542 2.64314575,14.3 4.3,14.3 L9.3,14.3 L9.47627279,14.2949073 C11.05108,14.2036609 12.3,12.8976809 12.3,11.3 L12.3,4.3 Z" id="形状结合" fill-opacity="0.1" fill="#000000" fill-rule="nonzero"></path>
            <path d="M3.8,6.3 C4.07614237,6.3 4.3,6.52385763 4.3,6.8 L4.3,11.8 C4.3,12.0761424 4.07614237,12.3 3.8,12.3 C3.52385763,12.3 3.3,12.0761424 3.3,11.8 L3.3,6.8 C3.3,6.52385763 3.52385763,6.3 3.8,6.3 Z M3.8,6.6 C3.68954305,6.6 3.6,6.68954305 3.6,6.8 L3.6,11.8 C3.6,11.9104569 3.68954305,12 3.8,12 C3.91045695,12 4,11.9104569 4,11.8 L4,6.8 C4,6.68954305 3.91045695,6.6 3.8,6.6 Z" id="矩形" fill-opacity="0.1" fill="#000000" fill-rule="nonzero"></path>
            <path d="M6.8,6.3 C7.07614237,6.3 7.3,6.52385763 7.3,6.8 L7.3,11.8 C7.3,12.0761424 7.07614237,12.3 6.8,12.3 C6.52385763,12.3 6.3,12.0761424 6.3,11.8 L6.3,6.8 C6.3,6.52385763 6.52385763,6.3 6.8,6.3 Z M6.8,6.6 C6.68954305,6.6 6.6,6.68954305 6.6,6.8 L6.6,11.8 C6.6,11.9104569 6.68954305,12 6.8,12 C6.91045695,12 7,11.9104569 7,11.8 L7,6.8 C7,6.68954305 6.91045695,6.6 6.8,6.6 Z" id="矩形" fill-opacity="0.1" fill="#000000" fill-rule="nonzero"></path>
            <path d="M9.8,6.3 C10.0761424,6.3 10.3,6.52385763 10.3,6.8 L10.3,11.8 C10.3,12.0761424 10.0761424,12.3 9.8,12.3 C9.52385763,12.3 9.3,12.0761424 9.3,11.8 L9.3,6.8 C9.3,6.52385763 9.52385763,6.3 9.8,6.3 Z M9.8,6.6 C9.68954305,6.6 9.6,6.68954305 9.6,6.8 L9.6,11.8 C9.6,11.9104569 9.68954305,12 9.8,12 C9.91045695,12 10,11.9104569 10,11.8 L10,6.8 C10,6.68954305 9.91045695,6.6 9.8,6.6 Z" id="矩形" fill-opacity="0.1" fill="#000000" fill-rule="nonzero"></path>
        </g>
    </g>
</svg>