<?xml version="1.0" encoding="UTF-8"?>
<svg width="32px" height="32px" viewBox="0 0 32 32" version="1.1" xmlns="http://www.w3.org/2000/svg" xmlns:xlink="http://www.w3.org/1999/xlink">
    <title>multiview_clear-1</title>
    <defs>
        <circle id="path-1" cx="16" cy="15" r="14"></circle>
        <filter x="-12.5%" y="-8.9%" width="125.0%" height="125.0%" filterUnits="objectBoundingBox" id="filter-2">
            <feOffset dx="0" dy="1" in="SourceAlpha" result="shadowOffsetOuter1"></feOffset>
            <feGaussianBlur stdDeviation="1" in="shadowOffsetOuter1" result="shadowBlurOuter1"></feGaussianBlur>
            <feComposite in="shadowBlurOuter1" in2="SourceAlpha" operator="out" result="shadowBlurOuter1"></feComposite>
            <feColorMatrix values="0 0 0 0 0   0 0 0 0 0   0 0 0 0 0  0 0 0 0.3 0" type="matrix" in="shadowBlurOuter1"></feColorMatrix>
        </filter>
    </defs>
    <g id="multiview_clear-1" stroke="none" stroke-width="1" fill="none" fill-rule="evenodd">
        <g id="椭圆形">
            <use fill="black" fill-opacity="1" filter="url(#filter-2)" xlink:href="#path-1"></use>
            <use fill-opacity="0.4" fill="#000000" fill-rule="evenodd" xlink:href="#path-1"></use>
        </g>
        <path d="M16,2 C23.1797017,2 29,7.82029825 29,15 C29,22.1797017 23.1797017,28 16,28 C8.82029825,28 3,22.1797017 3,15 C3,7.82029825 8.82029825,2 16,2 Z M12.4644661,10.0502525 C12.0739418,9.65972824 11.4407768,9.65972824 11.0502525,10.0502525 C10.6597282,10.4407768 10.6597282,11.0739418 11.0502525,11.4644661 L14.5857864,15 L11.0502525,18.5355339 C10.6597282,18.9260582 10.6597282,19.5592232 11.0502525,19.9497475 C11.4407768,20.3402718 12.0739418,20.3402718 12.4644661,19.9497475 L16,16.4142136 L19.5355339,19.9497475 C19.9260582,20.3402718 20.5592232,20.3402718 20.9497475,19.9497475 C21.3402718,19.5592232 21.3402718,18.9260582 20.9497475,18.5355339 L17.4142136,15 L20.9497475,11.4644661 C21.3402718,11.0739418 21.3402718,10.4407768 20.9497475,10.0502525 C20.5592232,9.65972824 19.9260582,9.65972824 19.5355339,10.0502525 L16,13.5857864 Z" id="形状结合" fill="#FFFFFF"></path>
    </g>
</svg>