<?xml version="1.0" encoding="UTF-8"?>
<svg width="70px" height="70px" viewBox="0 0 70 70" version="1.1" xmlns="http://www.w3.org/2000/svg" xmlns:xlink="http://www.w3.org/1999/xlink">
    <title>投票</title>
    <defs>
        <path d="M35,13 C43.836556,13 51,20.163444 51,29 C51,37.836556 43.836556,45 35,45 C26.163444,45 19,37.836556 19,29 C19,20.163444 26.163444,13 35,13 Z M31.9160971,30.7935651 C30.9348607,31.9800389 29.4098472,33.681692 29.0225876,34.1559392 L28.9769891,34.2128383 C28.6099954,34.6700197 28.3145679,35.1798387 28.1003165,35.7247193 L28,36 C28.6466778,35.7838967 29.2502577,35.4551586 29.7830043,35.0288939 C30.1575167,34.735114 31.9568042,33.1111635 33.1861824,32.0666124 L33.1861824,32.0502906 L31.9160971,30.7935651 Z M38.2084293,22.2238763 C37.8281733,21.8929208 37.2522462,21.9336056 36.9220609,22.3147482 C36.5918753,22.6958908 36.6324655,23.2731608 37.0127214,23.6041159 L37.0127214,23.6041159 L37.2651102,23.8652537 L32.3801668,27.3334897 L31.3054793,26.2481358 C30.962533,25.9496524 30.4527179,25.9496524 30.1097717,26.2481359 C29.7295159,26.579091 29.6889257,27.1563611 30.019111,27.5375036 L30.019111,27.5375036 L36.3939621,33.968021 C36.7369083,34.2665045 37.2467234,34.2665045 37.5896697,33.9680211 C37.9699255,33.6370659 38.0105156,33.0597959 37.6803304,32.6786533 L37.6803304,32.6786533 L36.5975012,31.5932995 L40.0576695,26.6969664 L40.3996155,26.9662647 C40.427671,26.99865 40.4579662,27.0290159 40.4902762,27.0571368 C40.8705322,27.3880921 41.4464594,27.3474073 41.7766446,26.9662647 C42.1068301,26.5851222 42.0662399,26.0078522 41.6859839,25.676897 L41.6859839,25.676897 L38.29909,22.3147484 C38.2710345,22.2823631 38.2407393,22.2519972 38.2084293,22.2238763 Z" id="path-1"></path>
        <filter x="-103.1%" y="-84.4%" width="306.2%" height="306.2%" filterUnits="objectBoundingBox" id="filter-2">
            <feOffset dx="0" dy="6" in="SourceAlpha" result="shadowOffsetOuter1"></feOffset>
            <feGaussianBlur stdDeviation="10" in="shadowOffsetOuter1" result="shadowBlurOuter1"></feGaussianBlur>
            <feColorMatrix values="0 0 0 0 0   0 0 0 0 0   0 0 0 0 0  0 0 0 0.2 0" type="matrix" in="shadowBlurOuter1"></feColorMatrix>
        </filter>
    </defs>
    <g id="固定高度" stroke="none" stroke-width="1" fill="none" fill-rule="evenodd">
        <g id="投票" fill-rule="nonzero">
            <use fill="black" fill-opacity="1" filter="url(#filter-2)" xlink:href="#path-1"></use>
            <use fill="#FFFFFF" xlink:href="#path-1"></use>
        </g>
    </g>
</svg>