<?xml version="1.0" encoding="UTF-8"?>
<svg width="32px" height="32px" viewBox="0 0 32 32" version="1.1" xmlns="http://www.w3.org/2000/svg" xmlns:xlink="http://www.w3.org/1999/xlink">
    <title>multiview_top-active</title>
    <defs>
        <circle id="path-1" cx="16" cy="15" r="14"></circle>
        <filter x="-12.5%" y="-8.9%" width="125.0%" height="125.0%" filterUnits="objectBoundingBox" id="filter-2">
            <feOffset dx="0" dy="1" in="SourceAlpha" result="shadowOffsetOuter1"></feOffset>
            <feGaussianBlur stdDeviation="1" in="shadowOffsetOuter1" result="shadowBlurOuter1"></feGaussianBlur>
            <feComposite in="shadowBlurOuter1" in2="SourceAlpha" operator="out" result="shadowBlurOuter1"></feComposite>
            <feColorMatrix values="0 0 0 0 0   0 0 0 0 0   0 0 0 0 0  0 0 0 0.3 0" type="matrix" in="shadowBlurOuter1"></feColorMatrix>
        </filter>
    </defs>
    <g id="multiview_top-active" stroke="none" stroke-width="1" fill="none" fill-rule="evenodd">
        <g id="椭圆形">
            <use fill="black" fill-opacity="1" filter="url(#filter-2)" xlink:href="#path-1"></use>
            <use fill-opacity="0.4" fill="#000000" fill-rule="evenodd" xlink:href="#path-1"></use>
        </g>
        <circle id="椭圆形" fill="#FFFFFF" cx="16" cy="15" r="13"></circle>
        <path d="M22.2084137,11.9142615 C22.5615085,12.221577 22.5991994,12.7576134 22.2925986,13.1115315 C21.985998,13.4654496 21.4512084,13.5032284 21.0981136,13.1959128 C21.0681115,13.1698005 21.0399802,13.1416036 21.0139287,13.1115315 L20.6964074,12.8614688 L17.483394,17.4080638 L18.4888782,18.4158924 C18.7954788,18.7698105 18.7577879,19.3058469 18.4046933,19.6131624 C18.0862432,19.8903256 17.6128435,19.8903256 17.2943934,19.6131624 L11.3748887,13.6419676 C11.0682882,13.2880496 11.1059791,12.7520131 11.4590737,12.4446976 C11.7775238,12.1675344 12.2509235,12.1675344 12.5693736,12.4446976 L13.5672978,13.4525261 L18.1033166,10.2320213 L17.8689556,9.98953625 C17.5158608,9.68222072 17.4781699,9.14618427 17.7847708,8.79226619 C18.0913714,8.4383481 18.626161,8.40056933 18.9792558,8.70788511 C19.0092579,8.7339974 19.0373892,8.76219428 19.0634407,8.79226633 L22.2084137,11.9142615 Z M14.3157408,17.8324127 L13.1363759,16.6654533 C12.183812,17.8172574 10.6793657,19.4919199 10.4072046,19.8404922 C10.0096277,20.3357726 9.70250288,20.8975805 9.5,21.5 C10.1004865,21.2993327 10.6609536,20.9940759 11.1556469,20.5982587 C11.5034083,20.325463 13.1741753,18.8175089 14.3157408,17.8475687 L14.3157408,17.8324127 Z" id="形状" fill="#0081FF" fill-rule="nonzero"></path>
    </g>
</svg>