<?xml version="1.0" encoding="UTF-8"?>
<svg width="50px" height="50px" viewBox="0 0 50 50" version="1.1" xmlns="http://www.w3.org/2000/svg" xmlns:xlink="http://www.w3.org/1999/xlink">
    <title>menu_disable</title>
    <g id="分屏/水印/三方标题栏" stroke="none" stroke-width="1" fill="none" fill-rule="evenodd" opacity="0.4">
        <g id="1070新改工具栏图标" transform="translate(-886, -294)">
            <g id="dark-50" transform="translate(588, 68)">
                <g id="DTK-/-Toolbar-/-TitleButton-/-Menu" transform="translate(298, 226)">
                    <rect id="bg" fill-opacity="0.1" fill="#000000" opacity="0" x="0" y="0" width="50" height="50"></rect>
                    <path d="M25,18 C28.8659932,18 32,21.1340068 32,25 C32,28.8659932 28.8659932,32 25,32 C21.1340068,32 18,28.8659932 18,25 C18,21.1340068 21.1340068,18 25,18 Z M25,19 C21.6862915,19 19,21.6862915 19,25 C19,28.3137085 21.6862915,31 25,31 C28.3137085,31 31,28.3137085 31,25 C31,21.6862915 28.3137085,19 25,19 Z M23,24 C23.5522847,24 24,24.4477153 24,25 C24,25.5522847 23.5522847,26 23,26 C22.4477153,26 22,25.5522847 22,25 C22,24.4477153 22.4477153,24 23,24 Z M27,24 C27.5522847,24 28,24.4477153 28,25 C28,25.5522847 27.5522847,26 27,26 C26.4477153,26 26,25.5522847 26,25 C26,24.4477153 26.4477153,24 27,24 Z" id="形状结合" fill-opacity="0.7" fill="#FFFFFF" fill-rule="nonzero"></path>
                </g>
            </g>
        </g>
    </g>
</svg>